<mxfile host="app.diagrams.net" modified="2024-07-06T16:25:23.861Z" agent="Mozilla/5.0 (Windows NT 10.0; Win64; x64) AppleWebKit/537.36 (KHTML, like Gecko) Chrome/126.0.0.0 Safari/537.36 Edg/126.0.0.0" version="24.6.4" etag="9HlvWo6tXLe1e-c74Mzr" type="github">
  <diagram name="Page-1" id="YeYWRtbzC-PXzW6kVFDP">
    <mxGraphModel>
      <root>
        <mxCell id="0" />
        <mxCell id="1" parent="0" />
      </root>
    </mxGraphModel>
  </diagram>
</mxfile>
